<svg xmlns="http://www.w3.org/2000/svg" xmlns:xlink="http://www.w3.org/1999/xlink" width="66" height="72" viewBox="0 0 66 72"><defs><path id="a" d="M13.85 50.219C6.27 46.723.914 39.392.914 30.5c0-12.19 9.982-22.406 22.18-22.406 3.482 0 12.048-2.914 22.51-6.796C57.939-3.279 63.393 17.258 63.883 39c.489 21.742-5.084 50.494-12.908 48.174l-6.582-1.952c-.85-.252-2.253-.456-3.137-.456H4.348c-.882 0-1.375-.69-1.106-1.53L13.851 50.22z"/><path id="d" d="M0 12.248V1.603C0 .718.722 0 1.604 0H61.65a2.592 2.592 0 0 1 2.599 2.598v9.781c-2.487 1.462-4.213 4.667-4.213 8.386 0 3.72 1.726 6.925 4.213 8.386v9.781a2.602 2.602 0 0 1-2.599 2.598H1.604C.718 41.53 0 40.81 0 39.928V29.282c2.612-1.393 4.448-4.682 4.448-8.517 0-3.835-1.836-7.124-4.448-8.517z"/><filter id="c" width="131.2%" height="148.2%" x="-15.6%" y="-19.3%" filterUnits="objectBoundingBox"><feOffset dy="2" in="SourceAlpha" result="shadowOffsetOuter1"/><feGaussianBlur in="shadowOffsetOuter1" result="shadowBlurOuter1" stdDeviation="3"/><feColorMatrix in="shadowBlurOuter1" values="0 0 0 0 0 0 0 0 0 0 0 0 0 0 0 0 0 0 0.24 0"/></filter></defs><g fill="none" fill-rule="evenodd"><path fill="#FF413C" stroke="#FF413C" stroke-width="2.5" d="M14.227 38.681C6.645 35.185 1.383 27.521 1.383 18.63c0-12.19 9.888-22.072 22.086-22.072 12.197 0 22.085 9.882 22.085 22.072 0 8.982-5.37 16.712-13.075 20.157l10.274 32.918c.263.842-.237 1.524-1.12 1.524H4.722c-.881 0-1.374-.69-1.105-1.529l10.609-33.018z"/><path fill="#D62929" d="M45.004 19.189c0 8.66-5.176 16.111-12.605 19.433L41.76 72h-6.82l-9.194-33.222A22.175 22.175 0 0 0 38.81 18.536C38.81 9.198 32.692.765 24.556-2.5c11.194.629 20.448 10.344 20.448 21.689z"/><g transform="translate(1.982 -12)"><mask id="b" fill="#fff"><use xlink:href="#a"/></mask><g mask="url(#b)"><g transform="translate(-6.22 30.92)"><use fill="#000" filter="url(#c)" xlink:href="#d"/><use fill="#FFF" xlink:href="#d"/></g><path fill="#F0F0F0" d="M-.428 43.153v-5.444c0-.883.725-1.598 1.605-1.598H50.63c.886 0 1.604.724 1.604 1.598v5.575c-2.466 1.46-4.178 4.661-4.178 8.376s1.712 6.916 4.178 8.376v4.999c0 .882-.724 1.598-1.604 1.598H1.177a1.607 1.607 0 0 1-1.605-1.598v-4.868c2.591-1.392 4.412-4.676 4.412-8.507 0-3.83-1.82-7.115-4.412-8.507z"/><g stroke="#BCBCBC" stroke-width="2.64" transform="translate(17.96 46.92)"><path stroke-linecap="square" d="M2.846 4v2.667M8.266 4v1.333M13.687 4H2.846"/><ellipse cx="19.108" cy="4" rx="4.065" ry="4"/></g></g></g></g></svg>